<svg width="48" height="50" viewBox="0 0 48 50" fill="none" xmlns="http://www.w3.org/2000/svg">
<g clip-path="url(#clip0_759_3446)">
<path d="M40.0959 2.89915L37.9962 4.99669L37.9945 15.8883C37.9934 24.17 37.9911 26.8133 37.986 26.9183C37.964 27.3759 37.9504 27.5934 37.9284 27.8589C37.8 29.3831 37.4975 30.8767 37.019 32.3511C37.0004 32.4082 36.9862 32.4545 36.9868 32.4545C36.9936 32.4545 37.3844 32.0337 37.5348 31.8642C39.367 29.8051 40.7225 27.3516 41.4797 24.7236C41.8841 23.3215 42.1148 21.9047 42.181 20.4218C42.1979 20.0342 42.1985 19.6755 42.1968 10.2855L42.1951 0.802174L40.0959 2.89915Z" fill="#7FB800"/>
<path d="M43.7966 10.5019C43.7955 17.8667 43.7932 20.2377 43.7881 20.3427C43.7638 20.8444 43.7531 21.0212 43.7276 21.3257C43.4449 24.6903 42.3082 27.9273 40.4222 30.7429C39.6837 31.845 38.8598 32.8461 37.9114 33.7934C37.1553 34.5493 36.3817 35.2108 35.5165 35.8413C35.4701 35.8751 35.4102 35.922 35.3836 35.9452C35.3304 35.9915 35.2716 36.0322 35.227 36.0554C35.2106 36.0633 35.158 36.0972 35.111 36.1299C34.23 36.7412 33.2443 37.3083 32.2451 37.78C29.8688 38.9008 27.302 39.5381 24.6588 39.6629C24.0673 39.6906 23.344 39.6917 22.7587 39.6657C21.1544 39.5934 19.5902 39.337 18.0452 38.8918C17.8077 38.8235 17.2818 38.6602 17.2043 38.6308C17.1806 38.6218 17.5719 38.9828 17.8332 39.211C19.433 40.6086 21.2884 41.7283 23.2558 42.4841C25.0145 43.1603 26.8535 43.5546 28.7333 43.6597C29.1026 43.6801 29.2089 43.6823 29.8021 43.6823C30.3953 43.6823 30.5016 43.6801 30.8709 43.6597C34.2973 43.4682 37.58 42.3152 40.377 40.3194C41.4814 39.5313 42.5056 38.6122 43.4087 37.5976C45.2861 35.4893 46.64 32.9924 47.3746 30.2825C47.7105 29.0419 47.9135 27.7522 47.9774 26.4495C47.9808 26.3828 47.9864 26.2642 47.9898 26.1868C47.9949 26.0806 47.9972 23.4147 47.9983 15.5212L48 4.99673L45.8992 2.89806L43.7983 0.799388L43.7966 10.5019Z" fill="#00A6ED"/>
<path d="M0.00169651 16.6509C0.00282752 24.1491 0.00508954 26.7415 0.0101791 26.8449C0.0299717 27.2674 0.0429783 27.4793 0.065033 27.742C0.290669 30.4152 1.118 33.0223 2.4803 35.3531C2.83091 35.9536 3.22055 36.54 3.6328 37.0897C3.98454 37.5585 4.35721 38.0099 4.73836 38.4285C5.1393 38.868 5.66635 39.3917 6.06107 39.7414L6.10179 39.777L6.08539 39.7414C6.07634 39.7216 6.04694 39.6567 6.01979 39.5979C5.51706 38.5042 5.10537 37.3377 4.80961 36.1694C4.44486 34.726 4.24807 33.2889 4.20735 31.7625C4.20396 31.6348 4.2017 27.7019 4.2017 21.1759V10.7927L2.10085 8.69406L0 6.59539L0.00169651 16.6509Z" fill="#FF4D6D"/>
<path d="M7.90178 8.69521L5.80206 10.7928V21.1025C5.80206 27.6267 5.80433 31.5015 5.80772 31.6552C5.81564 32.0162 5.82921 32.3048 5.85296 32.6297C6.05371 35.3689 6.86238 38.0178 8.22412 40.3973C8.91743 41.609 9.74589 42.7394 10.6931 43.767C11.0256 44.1269 11.4175 44.5184 11.7772 44.8488C14.6991 47.5361 18.3941 49.2106 22.3148 49.6252C23.4905 49.7489 24.7289 49.7625 25.9086 49.6642C28.666 49.4348 31.3549 48.5796 33.7504 47.1695C35.3169 46.2481 36.7374 45.103 37.9736 43.767C38.1071 43.6224 38.3191 43.3846 38.3169 43.3817C38.3157 43.3806 38.2773 43.3976 38.232 43.4196C37.9261 43.5653 37.4941 43.7523 37.114 43.9032C34.446 44.9613 31.6151 45.416 28.6767 45.2584C27.7238 45.207 26.7636 45.0844 25.8232 44.894C23.6601 44.4557 21.5836 43.6523 19.6767 42.5169C17.4486 41.1899 15.4824 39.4183 13.9284 37.3383C13.8611 37.2479 13.7836 37.1428 13.7553 37.1044C13.7276 37.066 13.6908 37.0185 13.6733 36.9987C13.6286 36.9502 13.6015 36.9123 13.5642 36.8473C13.5461 36.8168 13.5042 36.7519 13.4709 36.7033C13.1361 36.2191 12.7838 35.652 12.4852 35.1153C11.1274 32.6777 10.3086 30.0005 10.075 27.2347C10.049 26.9319 10.036 26.7138 10.0139 26.2461C10.0088 26.1365 10.0066 23.7667 10.0043 16.3499L10.0009 6.59824L7.90178 8.69521Z" fill="#FFB400"/>
</g>
<defs>
<clipPath id="clip0_759_3446">
<rect width="48" height="49.7297" fill="white"/>
</clipPath>
</defs>
</svg>
